<?xml version="1.0" standalone="no"?><!DOCTYPE svg PUBLIC "-//W3C//DTD SVG 1.1//EN" "http://www.w3.org/Graphics/SVG/1.1/DTD/svg11.dtd"><svg t="1698994577279" class="icon" viewBox="0 0 1354 1024" version="1.1" xmlns="http://www.w3.org/2000/svg" p-id="4263" xmlns:xlink="http://www.w3.org/1999/xlink" width="264.453125" height="200"><path d="M668.250741 71.579309c20.95989 37.569961 56.602715 57.134972 91.364565 77.470838 51.390273 30.081664 107.442379 47.71954 165.696924 58.933631 29.017151 5.597869 57.722289 12.590617 86.262245 20.519402 47.57271 13.232995 81.104864 42.61722 104.39567 85.381268a563.879775 563.879775 0 0 1 37.845265 84.628769 16.077814 16.077814 0 0 0 10.296409 10.590067 472.184844 472.184844 0 0 1 116.747689 69.156625q49.885273 40.194535 37.845265 103.257742a345.342637 345.342637 0 0 1-23.969891 73.708335c-44.764599 101.49579-106.120915 193.043891-170.046744 283.013577-9.874274 13.893727-20.849768 26.796357-34.76185 36.872521a84.261695 84.261695 0 0 1-50.968139 15.85757 136.11081 136.11081 0 0 1-24.667331-2.422684c-29.365871-5.395979-57.428631-15.784155-86.133769-23.71294-72.992542-20.189036-146.51734-37.569961-221.95092-45.884173a837.936762 837.936762 0 0 0-92.484138-5.139028 817.197115 817.197115 0 0 0-184.362606 20.959891c-25.016051 5.781406-49.775151 12.572263-74.791202 18.353669a68.697783 68.697783 0 0 1-15.288606 1.835367c-17.711291 0-32.687885-7.983846-44.856367-23.712941-13.122873-16.940437-24.814161-34.651727-32.944836-54.565458-0.825915-1.982196-1.266403-4.111222-3.45049-4.111222a6.038357 6.038357 0 0 0-2.184087 0.495549c-19.85867 7.947139-40.010999 15.930985-55.42808 31.036055-4.698539 4.606771-8.736346 6.295308-13.288057 6.295308a31.751847 31.751847 0 0 1-8.736346-1.505001c-35.569411-10.186286-70.698333-21.345317-102.468535-40.928682-11.562812-7.139577-22.244647-15.398728-30.705688-26.209039-16.903729-21.583915-16.242997-45.058258 1.835367-65.651075a104.065304 104.065304 0 0 1 25.089466-20.189036c38.120571-22.75855 79.856814-36.028252 122.547448-46.801856 20.005499-5.047259 40.249596-8.938237 60.567108-12.517202 2.587867-0.458842 5.359271-0.183537 6.40543-3.890978 7.598419-26.814711 25.841966-46.012648 46.2696-63.448634a113.444029 113.444029 0 0 1 32.41258-19.418182 59.612717 59.612717 0 0 1 21.914281-4.459941 51.059907 51.059907 0 0 1 22.703488 5.5061c1.229696 0.605671 2.881526 2.239148 4.331466 2.239148 0.862622 0 1.633477-0.587317 2.184087-2.367623 1.156281-3.762502 7.341468-7.341468 0.385427-12.095068a95.604262 95.604262 0 0 1-19.216292-17.619522c-14.939887-17.527754-18.353669-36.96429-9.635676-58.346314 8.130675-20.023853 21.804159-36.028252 37.5149-50.307407a31.439835 31.439835 0 0 0 9.176834-14.682936 807.781683 807.781683 0 0 1 33.275202-87.14322c15.270253-34.41313 39.974291-59.832961 70.918577-80.205534 21.455439-14.132325 43.351366-27.530504 66.073209-39.460389 1.982196-1.064513 3.927685-2.220794 7.561712-4.258051a197.412065 197.412065 0 0 0-30.76075-2.532806 313.847741 313.847741 0 0 0-50.564358 4.771954 55.740093 55.740093 0 0 1 14.389277-17.087266c19.197938-14.315862 41.442585-21.253549 64.384671-26.429284 13.581715-3.065063 27.383674-4.698539 41.277402-7.029455a217.894759 217.894759 0 0 0-73.010896-18.628974c10.131225-12.627324 23.382574-17.087266 37.331363-20.078914a268.605947 268.605947 0 0 1 56.767898-5.340918c6.625675 0 13.269703 0.146829 19.932085 0.403781h3.175185c4.790308 0 4.404881-1.10122 1.835367-7.469943-6.038357-14.976594-10.479945-30.338615-10.736897-46.636673a63.338512 63.338512 0 0 1 6.699089-28.998798m-2.073964-71.579309l-27.65898 57.079911a96.74219 96.74219 0 0 0-9.984396 44.048806 134.477333 134.477333 0 0 0 1.835367 20.390926 274.552536 274.552536 0 0 0-46.783502 5.726345c-17.30751 3.670734-39.313559 10.681835-56.162227 31.71514l-39.497096 49.297955 8.387626 0.568964a91.181028 91.181028 0 0 0-18.592266 23.125623l-36.028253 60.787352 19.289707-3.138478a204.239629 204.239629 0 0 0-48.251796 67.339612 835.091943 835.091943 0 0 0-34.559959 90.887369 2.973294 2.973294 0 0 1-0.110122 0.312013c-22.134525 20.189036-36.707338 39.900877-45.682283 62.108816-9.378725 23.125623-9.397079 46.361368-0.367073 67.541502-1.266403 0.440488-2.532806 0.89933-3.780856 1.394879a146.682523 146.682523 0 0 0-41.644475 24.997697c-18.518852 15.784155-38.322461 35.294106-50.380822 62.402475-15.380375 2.844819-32.357519 6.276955-49.554906 10.590067-40.139474 10.149579-87.143221 24.06166-131.393917 50.47259a136.716481 136.716481 0 0 0-32.926482 26.686235c-28.595016 32.320811-29.806359 73.653274-3.175185 107.736037 9.984396 12.7558 22.501598 23.547757 39.386974 33.954288 35.899777 22.134525 74.369067 34.156178 110.690978 44.581062a65.155525 65.155525 0 0 0 17.839766 2.771404c13.489947 0 25.695137-5.285857 36.41368-15.729094a77.43413 77.43413 0 0 1 19.693487-13.269703 314.178107 314.178107 0 0 0 25.052758 37.037704c18.500498 23.85977 43.057708 36.523801 70.991992 36.523802a101.899571 101.899571 0 0 0 22.685135-2.661282c13.031105-2.991648 26.043856-6.276955 38.634473-9.45214 11.893178-2.991648 24.190136-6.093418 36.193436-8.864822a787.372403 787.372403 0 0 1 176.874309-20.189036 809.561989 809.561989 0 0 1 88.850112 4.937137c80.352363 8.90153 158.061798 28.705138 216.775185 44.948136 8.993298 2.477745 17.876474 5.212442 27.273552 8.093968 19.711841 6.038357 40.084413 12.296958 61.705036 16.261351a167.844304 167.844304 0 0 0 30.632273 2.973294 117.463482 117.463482 0 0 0 70.33126-22.134525c19.748548-14.279155 33.605568-32.229043 42.323561-44.489294 58.621619-82.499742 125.20873-179.664067 173.350404-288.813336 12.700739-28.796907 21.271902-55.22619 26.20904-80.756144 10.424884-53.941433-6.717443-100.706582-49.554907-135.229834a506.561266 506.561266 0 0 0-118.895068-71.469187 598.494795 598.494795 0 0 0-37.698436-82.995292c-28.448187-52.216189-70.367967-86.262245-124.566352-101.404022-31.605018-8.791407-60.67723-15.692387-88.831758-21.125073-61.448084-11.85647-112.232686-29.86142-155.272041-55.061007l-4.790307-2.808111c-31.568311-18.353669-58.731741-34.2663-74.424129-62.237292L666.176777 0z" fill="#FFFFFF" p-id="4264"></path><path d="M587.568012 246.471422c-28.191236-4.441588-54.106616-2.018904-81.361815 2.404331a55.740093 55.740093 0 0 1 14.389277-17.087266c19.197938-14.315862 41.442585-21.253549 64.384671-26.429284 13.581715-3.065063 27.383674-4.698539 41.277402-7.029455a217.894759 217.894759 0 0 0-73.010896-18.628974c10.131225-12.627324 23.382574-17.087266 37.331363-20.078914 25.30971-5.506101 50.949785-5.909881 76.699983-4.937137 8.057261 0.312012 8.057261 0.165183 5.010552-7.341468-6.038357-14.976594-10.479945-30.338615-10.736897-46.636673a63.338512 63.338512 0 0 1 6.699089-29.127273c20.95989 37.569961 56.602715 57.134972 91.364565 77.470838 51.390273 30.081664 107.442379 47.71954 165.696924 58.933631 29.017151 5.597869 57.722289 12.590617 86.262245 20.519402 47.57271 13.232995 81.104864 42.61722 104.39567 85.381268a563.879775 563.879775 0 0 1 37.845265 84.628769 16.077814 16.077814 0 0 0 10.296409 10.590067 472.184844 472.184844 0 0 1 116.747689 69.156625q49.885273 40.194535 37.845265 103.257742a345.342637 345.342637 0 0 1-23.969891 73.708335c-44.764599 101.49579-106.120915 193.043891-170.046744 283.013577-9.874274 13.893727-20.849768 26.796357-34.76185 36.872521-23.033855 16.646778-48.784052 18.353669-75.63547 13.434886-29.365871-5.395979-57.428631-15.784155-86.133769-23.71294-72.992542-20.189036-146.51734-37.569961-221.95092-45.884173a820.409008 820.409008 0 0 0-276.791683 15.912631c-25.016051 5.781406-49.775151 12.572263-74.791202 18.353669-24.538856 5.634576-44.61777-1.835367-60.144973-21.895927-13.122873-16.940437-24.814161-34.651727-32.944836-54.565458-1.027805-2.532806-1.468294-5.285857-5.634577-3.670734-19.85867 7.947139-40.010999 15.930985-55.42808 31.036054-7.341468 7.341468-13.251349 7.341468-22.024403 4.790308-35.569411-10.186286-70.698333-21.345317-102.468535-40.928682-11.562812-7.139577-22.244647-15.398728-30.705688-26.20904-16.903729-21.583915-16.242997-45.058258 1.835367-65.651074a104.065304 104.065304 0 0 1 25.089466-20.189036c38.120571-22.75855 79.856814-36.028252 122.547448-46.801856 20.005499-5.047259 40.249596-8.938237 60.567108-12.517202 2.587867-0.458842 5.359271-0.183537 6.40543-3.890978 7.598419-26.814711 25.841966-46.012648 46.2696-63.448634a113.444029 113.444029 0 0 1 32.357519-19.436536c15.086716-5.928235 29.843066-6.276955 44.617769 0.954391 1.945489 0.954391 5.065613 4.606771 6.515553-0.128476 1.156281-3.762502 7.341468-7.341468 0.385427-12.095068a95.604262 95.604262 0 0 1-19.216292-17.619522c-14.939887-17.527754-18.353669-36.96429-9.635676-58.346314 8.130675-20.023853 21.804159-36.028252 37.5149-50.307407a31.439835 31.439835 0 0 0 9.176834-14.682935 807.781683 807.781683 0 0 1 33.275202-87.143221c15.270253-34.41313 39.974291-59.832961 70.918577-80.205534 21.455439-14.132325 43.351366-27.530504 66.073209-39.460388 2.018904-1.192988 3.964393-2.294209 7.598419-4.331466z m61.117718 178.416017l-0.807561-0.7525c1.835367-4.276405 5.212442-7.45159 7.983846-11.012202 18.445437-23.951538 40.378072-44.966489 59.08046-68.697783 22.978794-29.035504 49.151126-54.969239 80.13212-75.690531 1.394879-0.917683 4.0011-1.835367 3.028355-3.909332-1.192988-2.606221-3.670734-0.770854-5.377625-0.238598a251.592096 251.592096 0 0 0-31.293006 11.893178l0.110122-0.20189c12.994398-7.10287 25.86032-14.462691 39.019901-21.253549 12.847568-6.644028 26.300808-11.929885 40.81856-13.673484 18.775803-2.257501 35.385874 4.276405 52.087713 11.911532 36.285204 16.518302 65.797904 41.185633 90.061454 72.607114 9.819213 12.700739 11.45269 25.695137 5.909881 40.561609-13.30641 35.642825-38.304107 62.402475-65.559306 88.666575-0.697439-3.982746-1.10122-7.084516-1.835367-10.131225-1.835367-8.626224-5.175735-16.646778-11.911531-22.703489-2.826465-2.55116-6.276955-4.074515-10.131225-2.349269s-2.385977 5.065613-2.404331 7.892077c-0.128476 10.094518-0.807561 20.189036-1.541708 30.21014-1.835367 25.236295-11.984946 45.205087-33.330263 60.12662-22.40983 15.710741-45.37027 30.228493-70.294553 41.515999-10.718543 4.845369-21.65733 9.176835-33.56886 14.187386 16.224643 7.616773 30.503798 16.811961 46.618319 22.244647a35.055508 35.055508 0 0 0 26.153978-1.156281 119.298849 119.298849 0 0 0 33.238495-22.942086c42.396976-39.607218 84.426878-79.489741 126.842207-119.15202 19.950438-18.684035 40.543255-36.707338 66.348514-47.040454 8.424334-3.340368 12.260251-8.883176 14.132325-16.867022a39.680633 39.680633 0 0 0 0.146829-16.371472c-1.945489-10.681835-6.827565-20.189036-12.498848-30.687335 7.341468 6.166833 10.535006 14.224094 16.518302 20.06056a3.395429 3.395429 0 0 0 0.642378-3.817563c-4.459942-14.682935-9.176835-29.182334-16.169582-42.929232a62.402475 62.402475 0 0 0-34.688435-31.568311c-5.083966-1.835367-10.222994-3.670734-16.903729-6.093418 8.332566 1.027805 15.031655 1.835367 21.730744 2.716343 1.835367 0.238598 4.092868 1.413233 4.937137-0.55061 0.954391-2.294209-1.835367-2.808111-3.248599-3.670734-28.081114-15.178484-57.098264-28.081114-88.097612-35.863069-37.111119-9.286957-74.864616-16.316412-110.525795-30.595567-50.325761-20.189036-99.715484-42.103317-142.222582-76.755044-0.367073-0.293659-1.064513-0.183537-2.661282-0.40378 14.481045 33.935934 37.184534 60.32851 65.77955 82.499742-3.377075 1.706891-5.065613 0-6.827564-0.789208-11.874824-5.506101-23.749648-11.691287-33.036605-20.849768-10.388177-10.259701-22.831964-13.691837-36.340265-15.563911-4.771954-0.660732-9.543908-1.358172-14.352569-1.688538-12.994398-0.89933-25.988795-1.541708-39.001547 0.458842 18.555559 5.506101 36.945936 11.012201 54.2718 19.546658 8.259151 4.037807 16.224643 8.626224 22.61172 15.417082s6.332016 12.847568-0.844269 19.032755c0.275305-6.515553-3.982746-9.048359-8.95659-10.718543a60.768998 60.768998 0 0 0-9.984396-2.532807c-22.96044-3.542258-45.737343-1.284757-68.404125 2.642929-9.176835 1.578416-18.353669 2.863172-26.96154 6.387077 9.45214 1.156281 18.794157 2.055611 27.970992 4.037807 8.773054 1.835367 17.546108 3.982746 24.777453 9.635676s6.55226 12.278605-1.835367 16.518302c-0.34872-6.827565-4.863722-10.498299-11.929884-8.662932a52.766799 52.766799 0 0 0-10.736897 4.533357c-39.974291 20.868122-76.828459 46.434783-111.792198 74.827909a138.478433 138.478433 0 0 0-34.303008 42.543804 406.276819 406.276819 0 0 0-27.438735 63.705586c-1.835367 5.506101-3.523904 11.012201-5.506101 17.472693 11.360921-4.955491 20.189036-12.847568 31.917031-13.746898a399.247363 399.247363 0 0 0-36.542155 33.550507c-15.251899 15.967692-29.072212 33.036604-38.909779 53.005396-7.928785 16.096168-6.845919 31.311359 2.918234 46.232892a111.755491 111.755491 0 0 0 43.094415 39.442035 19.730194 19.730194 0 0 1 9.580615 10.021104 46.361368 46.361368 0 0 1-19.161231-5.671284c-6.332016-3.523904-9.543908-1.211342-12.443787 4.019453-0.55061 1.009452-1.229696 1.927135-1.835367 2.89988-5.634576 9.176835-5.634576 9.176835 4.0011 13.912081 10.75525 5.30421 10.865372 5.322564 14.040557-6.350369 0.991098-3.670734 2.037257-5.322564 6.460491-4.037807 21.180134 6.166833 42.855817 6.313662 64.770098 5.5061 15.30696-0.532256 20.923183-11.30586 29.365871-22.758549-18.867572 2.606221-35.532703-0.954391-52.344664-2.312563a130.880014 130.880014 0 0 1-40.010999-8.95659c-9.727445-4.037807-15.600619-10.828665-17.637876-21.125073-0.624025-3.248599-1.633477-6.423784-2.422684-9.507201-3.377075 0.183537-2.55116 3.872624-5.083967 4.661832-1.156281-1.486647-2.642928-2.789758-2.312562-4.771954 2.385977-14.40763 2.881526-29.219041 8.974944-42.837464 3.487197-7.763602 8.846468-10.700189 17.564461-10.186286a73.414676 73.414676 0 0 1 20.078914 4.276405 561.346969 561.346969 0 0 1 82.371267 35.697886c2.257501 1.211342 4.771954 4.294759 7.341468 2.459392 2.220794-1.615123 0.624025-5.10232 0.660732-7.763602 0.146829-9.176835-0.532256-18.353669 0.495549-27.530504a16.389826 16.389826 0 0 0-3.964392-13.031105c-7.65348-9.672384-15.692387-18.996047-24.318612-27.989345 12.260251 4.34982 21.730744 13.214642 32.761299 21.290256-1.027805-21.253549-1.156281-41.460938 3.156831-61.503145a136.404469 136.404469 0 0 1 2.110672 14.077264c3.468843 29.475993 9.543908 58.309607 20.390927 86.097062 2.606221 6.699089 6.00165 7.892078 12.241897 6.093418 2.863172-0.844269 4.147929-1.505001 2.587867-4.478295a226.557691 226.557691 0 0 1-14.095618-34.81691c-0.532256-1.633477-2.991648-2.936587-0.789207-5.726345a21.85922 21.85922 0 0 0 13.141227 9.764152c10.369823 3.120124 21.088366 4.147929 31.788555 5.249149a9.360371 9.360371 0 0 0 7.892077-3.156831 291.125899 291.125899 0 0 1 28.521602-23.71294c50.399175-37.845266 103.055852-72.368517 156.336553-105.937378 23.400928-14.682935 47.077161-29.035504 71.359065-42.378622 9.397079-5.157381 17.839766-5.506101 27.163431-0.183537 10.516652 5.983296 19.840316 13.10452 26.943186 23.015501 0.880976 1.229696 1.082866 3.505551 3.046709 3.322014s2.147379-2.587867 2.863172-4.166283c3.909332-8.681285 2.75305-16.940437-2.037257-24.905929-1.10122-1.835367-2.239148-3.670734-3.358721-5.395978 10.736896 7.745248 19.766902 16.830315 26.190685 30.008249a17.050559 17.050559 0 0 0-2.771404-14.682936c-18.463791-27.181784-41.607768-49.316309-70.679979-64.935281a41.552707 41.552707 0 0 0-32.651177-3.010002c-27.750748 8.149029-52.858567 21.895927-77.452484 36.707339a673.910021 673.910021 0 0 0-138.937275 110.287197z m447.444098 429.310673c15.013301-17.876474 30.320261-35.532703 42.910879-55.317958 7.139577-11.232445 13.912081-22.703489 20.721292-34.211239a8.167383 8.167383 0 0 1-0.715793 4.001099 464.347828 464.347828 0 0 1-47.389173 85.08761 178.214127 178.214127 0 0 1-23.85977 28.301358c-3.083416 2.826465-6.056711 5.047259-11.012202 2.863172-33.458739-14.95824-68.826259-23.85977-104.432377-31.751847-62.200584-13.875374-125.061901-21.712391-188.932669-21.088366-15.068362 0.165183-27.438735 2.330916-37.092765 16.20629-11.324214 16.298058-28.888675 20.886475-48.27015 18.004949-7.928785-1.174635-15.875924-2.477745-23.676233-4.294758-48.086613-11.177384-96.59536-19.65678-145.96673-22.40983-28.374772-1.578416-56.786252-1.835367-85.216086-1.633477-48.086613 0.403781-95.659323 4.680186-142.51624 15.637326-9.176835 2.165733-10.167933 3.120124-8.626225 12.682386 3.30366 20.40928 14.536106 36.26685 30.06331 49.297955a25.089466 25.089466 0 0 0 14.682936 5.194088 72.864066 72.864066 0 0 0 23.16233-2.404331c16.903729-4.258051 33.697336-8.938237 50.619419-13.104519a797.55869 797.55869 0 0 1 228.576595-22.446538c75.378519 3.487197 149.398866 16.279704 222.905311 32.779653 46.728441 10.498299 92.887919 23.272452 139.487885 34.651728 16.114521 3.946039 32.504348 5.873174 48.985942 2.275855 21.730744-4.7536 36.707338-19.087816 49.554907-36.083314 55.795154-74.479189 104.615914-153.363259 148.536244-235.349098 18.041657-33.697336 32.26575-68.844613 39.497096-106.634818 6.332016-33.183434-2.75305-59.7779-31.715141-78.553703-1.725245-1.119574-3.322014-2.422684-4.992197-3.670734-32.61447-23.566111-66.256745-45.186733-104.175426-59.539303-44.984843-17.032205-86.097062-11.636226-124.089157 18.592267-22.501598 17.894827-43.002647 37.881973-63.044853 58.309607-38.542705 39.16673-78.425228 76.571507-122.125314 109.846709-10.20464 7.781956-20.61117 15.417082-33.183434 19.161231-15.270253 4.55171-31.072762-0.679086-39.662279-14.095618 18.353669 8.222444 33.71569 2.734697 50.325761-6.735797a100.761643 100.761643 0 0 1-21.253549-5.5061c-23.199038-9.176835-44.984843-21.400378-68.294002-30.41203a177.902114 177.902114 0 0 0-52.436433-12.352019c-7.488297-0.513903-13.416532 1.413233-17.472693 7.983846-2.055611 3.358721-4.625125 4.221344-8.662932 2.95494-9.65403-3.010002-19.748548-3.982746-29.71459-5.5061-21.785805-3.432136-41.515999-0.734147-56.602715 17.454339-1.596769 1.945489-3.505551 3.523904-4.092869 6.185186-2.606221 11.544458-9.085066 20.941536-16.922082 29.475993-20.721292 22.630074-46.544905 37.680083-74.258946 49.866919-7.837017 3.45049-15.85757 6.460492-23.859769 9.672383 73.818457 0.55061 146.095206 8.0022 214.737928 36.835814-9.286957-1.835367-18.537206-3.835917-27.824162-5.634576a769.49593 769.49593 0 0 0-131.962881-13.086166c-86.53755-1.633477-172.359306 5.157381-257.079843 23.492696-46.287953 10.00275-91.63987 22.96044-133.688125 45.498746-9.085066 4.863722-18.243547 9.709091-25.30971 17.5094-10.057811 11.012201-10.608421 22.96044-1.633477 34.871971a70.276199 70.276199 0 0 0 17.784706 16.059461c25.695137 16.95879 54.528751 27.053308 83.564255 36.523801a5.377625 5.377625 0 0 0 5.65293-0.972744c22.538306-17.619522 48.398625-28.705138 75.250043-37.71679 44.636123-14.994948 90.722186-22.024403 137.652518-24.245197 56.621069-2.789758 113.15037-2.404331 169.62461 3.322014 39.754047 4.037807 78.718887 12.370373 117.70208 20.592817 23.419282 4.955491 42.598866 0.422134 57.685582-19.821963 10.663482-14.297508 23.290806-27.145077 35.312459-40.378072q69.08321-76.112666 143.654168-146.829352c41.681182-39.405328 84.426878-77.617667 130.200928-112.214333a22.501598 22.501598 0 0 1 13.820313-4.937137c19.032755-0.403781 38.047156-1.358172 57.061557-1.835367a939.707857 939.707857 0 0 1 101.679327 2.239148c12.113422 1.027805 18.996047 7.176285 18.830864 18.482145-0.275305 19.473243-9.030005 36.413679-16.995497 54.547104-1.670184-3.505551-0.55061-5.689637-0.14683-7.85537 1.65183-9.011652 3.395429-18.041657 3.2486-27.236845-0.220244-13.177934-4.661832-17.454339-17.729645-18.500499-3.670734-0.293659-3.670734 0.825915-3.377075 3.670734 1.706891 13.324764 0 26.521052-1.725245 39.71734-5.120674 39.093315-13.086166 77.691081-20.005499 116.472384-0.715793 4.056161-2.477745 5.212442-6.332016 5.30421-9.85592 0.256951-19.693487 0.972744-29.549407 1.339818-3.211892 0.110122-4.661832 0.991098-5.359271 4.570064-9.507201 48.949235-27.200138 95.072006-48.563809 139.928373-1.027805 2.147379-3.230246 4.111222-1.706891 6.937687h-0.34872zM681.722334 548.921535c11.379275 1.688538 22.189586 2.569514 31.531604 6.919333 15.325314 7.157931 29.255749 4.331466 44.048806-1.339818 34.504898-13.288056 68.147173-28.044406 97.568105-51.0232a54.088263 54.088263 0 0 0 20.078913-31.091115 153.858808 153.858808 0 0 0 2.642929-56.67613 56.309057 56.309057 0 0 0-4.661832-15.747449c-1.670184-3.670734-3.670734-4.7536-7.341468-2.459391-6.662382 4.037807-13.65513 7.506651-20.280804 11.599519-55.244544 33.990995-103.092559 76.920227-148.077402 123.226534-5.285857 5.175735-10.00275 10.590067-15.508851 16.591717z m403.395293 97.127616c0.807561 13.031105 2.367623 26.025503 1.963843 39.093316-0.165183 5.028905 1.835367 5.928235 6.478845 5.5061 24.226843-1.835367 48.453686-3.670734 72.717237-5.028905 4.955491-0.275305 7.047809-1.560062 8.05726-6.644028 4.882076-24.722392 9.910981-49.408077 13.269703-74.405775 2.367623-17.729644 4.184637-35.495996 3.2486-53.42753-0.238598-4.661832-1.413233-7.10287-6.864273-6.625675-5.891528 0.513903-11.893178-0.238598-17.839766-0.091768-28.429833 0.697439-56.767898 2.624575-85.124317 4.716893-5.983296 0.458842-6.919333 2.385977-6.075065 8.05726 4.386527 29.549407 7.983846 59.135522 10.167933 88.850112z m42.084963 60.879121c0.165183-2.75305 0.165183-2.844819-3.083416-2.624575-31.770201 2.073965-63.522049 4.515003-95.127067 8.40598-3.010002 0.385427-4.074515 1.027805-4.423234 4.368174-4.184637 40.194535-12.55391 79.618216-22.666782 118.65647-1.229696 4.7536 0.20189 5.836467 4.166283 6.882626a626.942982 626.942982 0 0 1 64.237842 20.189036c4.496649 1.725245 5.799759 0.128476 7.506651-3.487197a692.300397 692.300397 0 0 0 28.209589-67.908576c9.470493-27.255199 17.435986-54.950885 21.180134-84.463585z m-55.061007-91.621516q-2.532806-27.989345-4.992198-56.088813c-0.165183-1.743599 0.477195-4.056161-1.44994-4.992198s-3.138477 1.284757-4.459941 2.385977c-32.394226 26.924833-62.255645 56.584362-92.465785 85.876818a6.845919 6.845919 0 0 0-1.982196 6.809211 405.616087 405.616087 0 0 1 5.85482 51.151676c0.20189 3.982746 1.688538 4.386527 5.047259 3.835916 29.16398-4.680186 58.47479-8.387627 87.914075-11.012201 5.506101-0.477195 7.231346-2.514453 7.341467-7.928785 0.440488-23.30916 0.422134-46.636673-0.862622-70.019248z m-63.154975 109.791648a19.124523 19.124523 0 0 1-0.128476-3.982746c0.89933-5.359271-0.89933-6.717443-6.258601-5.506101a160.411068 160.411068 0 0 1-16.316412 2.055611c-24.263551 3.193538-48.47204 6.607321-72.552054 11.012202-3.10177 0.568964-3.964393 1.266403-3.670734 4.698539a447.590928 447.590928 0 0 1-3.322014 82.94023c-0.495549 3.762502 0 5.506101 4.478296 6.185187a759.713424 759.713424 0 0 1 77.342361 15.50885c3.946039 1.009452 4.790308-0.458842 5.414332-3.505551 7.323114-35.991545 13.398178-72.313456 14.958241-109.387867z m-563.861422-59.300705c-5.083966-1.211342-10.186286-2.294209-15.233545-3.670734-20.06056-5.377625-38.2674-15.30696-57.043203-23.859769a35.36752 35.36752 0 0 0-29.934835-0.091769 92.355663 92.355663 0 0 0-42.947585 37.404778 37.36807 37.36807 0 0 0-5.267503 13.361471c-0.880976 5.285857 0.367073 7.341468 6.497199 6.497199 19.10617-2.477745 38.230693-5.10232 57.446984-6.148479 30.558859-1.65183 58.47479-12.296958 86.482488-23.492697z m454.400139 105.607012a232.027084 232.027084 0 0 0-3.285306-34.376422c-0.330366-1.743599-0.312012-4.698539-2.330916-4.34982-6.387077 1.046159-13.563361 0.165183-18.702389 5.157381-7.543358 7.341468-14.884826 14.884826-22.024403 22.575013-15.141777 16.224643-30.136725 32.596116-45.150026 48.930882-0.89933 0.972744-2.496099 1.835367-2.018904 3.322014s2.165733 1.266403 3.523905 1.266403a698.687474 698.687474 0 0 1 84.885719 6.332016c4.239698 0.55061 4.496649-1.413233 4.661832-4.441588a399.651144 399.651144 0 0 0 0.440488-44.415879z m-373.643995-176.195223a9.176835 9.176835 0 0 0 2.734697 0c2.918233-0.936037 7.341468 2.147379 8.681286-2.771404s-2.697989-6.662382-6.130126-8.369273c-10.865372-5.377625-21.675683-10.902079-32.706238-15.912631a368.688504 368.688504 0 0 0-51.904176-19.638426c-2.239148-0.624025-4.735247-2.477745-5.230796 2.20244-1.468294 13.746898 4.092868 24.116721 16.646778 29.953188 21.528854 10.057811 44.305757 14.297508 67.908575 14.609521z m368.743566 121.868363c1.192988 0.587317 1.615123 0.991098 1.945489 0.936037 19.583365-3.468843 39.148376-7.047809 58.731741-10.443238 3.505551-0.605671 3.670734-2.918233 3.670733-5.506101a296.044682 296.044682 0 0 0-0.513902-42.507097c-0.146829-1.505001 0.422134-3.542258-1.413233-4.239698s-2.697989 1.339818-3.670734 2.367624q-14.370923 14.260801-28.61337 28.631723c-9.947689 10.167933-19.932085 20.390926-30.136724 30.76075z m-93.346761-453.133736c-0.660732-0.495549-1.192988-1.211342-1.596769-1.137928a3.175185 3.175185 0 0 0-2.073965 1.174635 0.972744 0.972744 0 0 0 1.321464 1.284757 15.710741 15.710741 0 0 0 2.34927-1.321464z" fill="#002402" p-id="4265"></path><path d="M1096.221597 854.069637c-1.505001-2.826465 0.697439-4.790308 1.725245-6.937687 21.363671-44.856367 39.056608-90.979138 48.563808-139.928373 0.697439-3.578965 2.147379-4.459942 5.359271-4.570064 9.85592-0.367073 19.693487-1.082866 29.549408-1.339818 3.854271-0.091768 5.616223-1.248049 6.332015-5.30421 6.919333-38.781303 14.884826-77.379069 20.0055-116.472384 1.706891-13.196288 1.468294-43.663379 5.10232-43.36972 13.067812 1.046159 17.5094 5.322564 17.729644 18.500498 0.146829 9.176835-1.596769 18.225193-3.248599 27.236845-0.403781 2.165733-1.523355 4.34982 0.146829 7.855371 7.965492-18.133425 16.720193-35.073862 16.995498-54.547105 0.165183-11.30586-6.717443-17.454339-18.830865-18.482145a939.707857 939.707857 0 0 0-101.679327-2.239147c-19.014401 0.440488-38.028802 1.394879-57.061557 1.835367a22.501598 22.501598 0 0 0-13.820313 4.937137c-45.884173 34.596666-88.519746 72.809005-130.200928 112.214332q-74.662726 70.643272-143.654168 146.829353c-12.021653 13.232995-24.648978 26.080564-35.312459 40.378072-15.086716 20.189036-34.2663 24.777453-57.685582 19.821963-38.983193-8.222444-77.948033-16.518302-117.70208-20.592817-56.47424-5.726345-113.00354-6.111772-169.624609-3.322014-46.911978 2.312562-92.998041 9.176835-137.652518 24.245197-26.814711 9.011652-52.67503 20.097268-75.250044 37.71679a5.377625 5.377625 0 0 1-5.65293 0.972744c-29.053858-9.543908-57.740643-19.601719-83.509194-36.560509a70.276199 70.276199 0 0 1-17.784705-16.05946c-8.974944-11.893178-8.424334-23.768001 1.633476-34.871971 7.066163-7.800309 16.224643-12.645678 25.30971-17.509401 42.048256-22.538306 87.400172-35.495996 133.688126-45.498745 84.720536-18.353669 170.542293-25.126173 257.079842-23.492697a769.49593 769.49593 0 0 1 131.962881 13.086166c9.286957 1.835367 18.537206 3.872624 27.824162 5.634577-68.661076-28.833614-140.937825-36.285204-214.737928-36.835814 7.928785-3.211892 15.949338-6.221894 23.85977-9.672384 27.71404-12.186836 53.537653-27.236845 74.258945-49.866919 7.837017-8.534456 14.315862-17.931535 16.922083-29.475992 0.587317-2.661282 2.496099-4.239698 4.092868-6.185187 15.086716-18.188486 34.871971-20.886475 56.602715-17.454339 9.966042 1.578416 20.06056 2.55116 29.714591 5.506101 4.037807 1.266403 6.607321 0.403781 8.662931-2.954941 4.056161-6.570614 9.984396-8.497749 17.472693-7.983846a177.902114 177.902114 0 0 1 52.363018 12.498849c23.30916 9.011652 45.094965 21.271902 68.294003 30.412029a100.761643 100.761643 0 0 0 21.253549 5.506101c-16.518302 9.470493-31.990445 14.95824-50.325761 6.735797 8.589517 13.416532 24.392026 18.647328 39.662279 14.095617 12.572263-3.670734 22.978794-11.379275 33.183434-19.16123 43.700086-33.275202 83.674377-70.67998 122.125314-109.84671 20.042207-20.427634 40.543255-40.378072 63.044853-58.309606 37.992095-30.228493 79.104314-35.624472 124.089156-18.592267 37.91868 14.352569 71.579309 35.973191 104.175426 59.539303 1.670184 1.211342 3.266953 2.514453 4.992198 3.670733 28.96209 18.775803 38.047156 45.37027 31.71514 78.553704-7.231346 37.790205-21.455439 72.937481-39.497096 106.634817-43.901976 81.98584-92.74109 160.869909-148.536243 235.349099-12.719093 16.995498-27.750748 31.329713-49.554907 36.083313-16.518302 3.670734-32.871421 1.670184-48.985943-2.275855-46.508197-11.379275-92.667675-24.153429-139.487885-34.651727-73.506445-16.518302-147.526792-29.365871-222.90531-32.779653a797.55869 797.55869 0 0 0-228.594949 22.519952c-16.922083 4.166283-33.71569 8.846468-50.619419 13.10452a72.864066 72.864066 0 0 1-23.16233 2.40433 25.089466 25.089466 0 0 1-14.682936-5.194088c-15.527204-13.031105-26.75965-28.888675-30.06331-49.297955-1.541708-9.562262-0.624025-10.516652 8.626225-12.682385 46.856917-11.012201 94.429627-15.233545 142.51624-15.637326 28.429833-0.238598 56.896374 0 85.216086 1.633476 49.37137 2.75305 97.880117 11.232445 145.96673 22.40983 7.800309 1.835367 15.747448 3.120124 23.676233 4.294759 19.381475 2.881526 36.945936-1.706891 48.27015-18.00495 9.65403-13.875374 22.024403-16.041107 37.092765-16.20629 63.870768-0.624025 126.640317 7.212992 188.932669 21.088366 35.606118 7.965492 70.973638 16.793607 104.432377 31.751848 4.918783 2.184087 7.892078 0 11.012202-2.863173a178.214127 178.214127 0 0 0 23.859769-28.301357 464.347828 464.347828 0 0 0 47.389174-85.08761c0.513903-1.211342-12.847568 18.977694-20.005499 30.210139-12.590617 19.785255-27.897577 37.441485-42.910879 55.317959zM701.70948 635.03695c-1.358172-0.660732-2.165733-1.082866-2.991648-1.44994-10.131225-4.276405-20.189036-8.828115-27.530504-17.472693-5.616223-6.662382-5.506101-12.168483-0.330366-18.353669 0.972744-1.156281 3.927685-1.670184 2.037258-4.147929a4.533356 4.533356 0 0 0-5.506101-1.560062 119.170373 119.170373 0 0 0-22.244647 8.809761c-7.341468 4.129576-7.763602 7.433236-1.027805 12.627324 15.251899 11.764702 32.871421 18.647328 51.133322 24.098368 2.642928 0.7525 4.423234 0.055061 6.460491-2.55116z" fill="#DBC34D" p-id="4266"></path><path d="M761.358905 276.42461a251.592096 251.592096 0 0 1 31.293005-11.893178c1.65183-0.532256 4.184637-2.367623 5.377625 0.238598 0.972744 2.147379-1.633477 2.991648-3.028355 3.909332-30.980993 20.721292-57.153325 46.655027-80.132119 75.690531-18.775803 23.731294-40.635023 44.746245-59.080461 68.697783-2.771404 3.670734-6.130125 6.790858-7.983846 11.012202l-1.688538 0.642378c0 1.137927-0.605671 1.633477-1.670183 1.706891v1.24805c0 0.403781-1.064513 1.963843 0.513902 1.284757s0.256951-1.835367-0.458841-2.55116c0.734147 0.367073 1.578416 0.89933 2.037257-0.201891 0.183537-0.403781-0.220244-1.064513-0.367074-1.578415 0.697439 2.20244 1.615123 1.046159 2.496099 0.20189a673.910021 673.910021 0 0 1 139.01069-110.489088c24.593917-14.682935 49.701736-28.484894 77.452484-36.707338a41.552707 41.552707 0 0 1 32.596116 3.175185c29.072212 15.618972 52.216189 37.753497 70.679979 64.935281a17.050559 17.050559 0 0 1 2.771404 14.682935c-6.423784-13.177934-15.453789-22.263001-26.190685-30.008249 1.119574 1.835367 2.257501 3.578965 3.358721 5.395979 4.790308 7.965492 5.946589 16.224643 2.037257 24.905929-0.715793 1.578416-0.679086 3.964393-2.863172 4.166283s-2.165733-2.092318-3.046709-3.322014c-7.10287-9.910981-16.426534-17.032205-26.943186-23.015501-9.323664-5.285857-17.766352-4.973844-27.163431 0.183536-24.281904 13.343117-47.958137 27.530504-71.359065 42.378622-53.22564 33.568861-105.937378 68.092112-156.336553 105.937378a291.125899 291.125899 0 0 0-28.521602 23.712941 9.360371 9.360371 0 0 1-7.892077 3.156831c-10.700189-1.10122-21.418732-2.129026-31.788555-5.24915a21.85922 21.85922 0 0 1-13.141227-9.764152c-2.20244 2.789758 0.256951 4.092868 0.789207 5.726345a226.557691 226.557691 0 0 0 14.00385 34.96374c1.560062 2.973294 0.275305 3.670734-2.587867 4.478295-6.240247 1.835367-9.635676 0.605671-12.241898-6.093418-10.847018-27.787455-16.922083-56.621069-20.390926-86.097062a136.404469 136.404469 0 0 0-2.110672-14.077264c-4.313112 20.042207-4.184637 40.249596-3.156831 61.503145-11.012201-8.075614-20.501048-16.940437-32.761299-21.290256 8.626224 8.993298 16.665132 18.353669 24.318611 27.989345a16.389826 16.389826 0 0 1 3.964393 13.031105c-1.027805 9.048359-0.34872 18.353669-0.495549 27.530504 0 2.661282 1.560062 6.148479-0.660732 7.763602-2.496099 1.835367-5.010552-1.248049-7.341468-2.459392a561.346969 561.346969 0 0 0-82.371267-35.697886 73.414676 73.414676 0 0 0-20.078914-4.276405c-8.717993-0.513903-14.077264 2.422684-17.564461 10.186286-6.093418 13.618422-6.588967 28.429833-8.974944 42.837464-0.330366 1.982196 1.156281 3.285307 2.312562 4.771954 2.532806-0.789208 1.706891-4.478295 5.083966-4.661832 0.789208 3.083416 1.835367 6.258601 2.422685 9.507201 2.037257 10.296408 7.910431 17.087266 17.637876 21.125073a130.880014 130.880014 0 0 0 40.010998 8.95659c16.811961 1.358172 33.477092 4.918783 52.344664 2.312563-8.424334 11.45269-14.040557 22.226293-29.36587 22.758549-21.914281 0.770854-43.589964 0.624025-64.770098-5.5061-4.423234-1.284757-5.506101 0.367073-6.460492 4.037807-3.175185 11.672934-3.285307 11.65458-14.040557 6.350369-9.635676-4.7536-9.635676-4.7536-4.0011-13.912081 0.605671-0.972744 1.284757-1.835367 1.835367-2.89988 2.89988-5.230796 6.111772-7.543358 12.443788-4.019453a46.361368 46.361368 0 0 0 19.161231 5.671284 19.730194 19.730194 0 0 0-9.580616-10.021104 111.755491 111.755491 0 0 1-43.131122-39.442035c-9.764152-14.921533-10.847018-30.136725-2.918233-46.232892 9.837567-20.005499 23.657879-37.037704 38.909778-53.005396a399.247363 399.247363 0 0 1 36.542155-33.550507c-11.746348 0.917683-20.556109 8.791407-31.91703 13.746898 2.018904-6.387077 3.670734-11.966592 5.5061-17.472693a406.276819 406.276819 0 0 1 27.438736-63.705586 138.478433 138.478433 0 0 1 34.303007-42.543804c34.96374-28.393126 71.817907-53.959787 111.792198-74.827909a52.766799 52.766799 0 0 1 10.736897-4.533357c7.066163-1.835367 11.599519 1.835367 11.764702 8.736347 8.442688-4.294759 9.30531-10.773604 1.835367-16.518302s-16.004399-7.763602-24.777454-9.635676c-9.176835-1.982196-18.518852-2.881526-27.970991-4.037808 8.662932-3.523904 17.85812-4.808661 26.96154-6.387076 22.666781-3.927685 45.443685-6.185186 68.404124-2.642929a60.768998 60.768998 0 0 1 9.984396 2.532806c4.973844 1.670184 9.176835 4.20299 8.956591 10.718543 7.176285-6.258601 7.341468-12.095068 0.844268-19.032755s-14.352569-11.379275-22.61172-15.417082c-17.325864-8.497749-35.71624-14.040557-54.271799-19.546657 13.012751-2.00055 26.007149-1.358172 39.001546-0.458842 4.808661 0.330366 9.580615 1.027805 14.35257 1.688538 13.5083 1.835367 25.952088 5.30421 36.340264 15.563911 9.268603 9.176835 21.143427 15.288606 33.036605 20.849768 1.835367 0.825915 3.45049 2.496099 6.827565 0.789208-28.429833-22.318062-51.133322-48.67393-65.57766-82.609865 1.596769 0.220244 2.294209 0.110122 2.661282 0.403781 42.507098 34.651727 91.896821 56.621069 142.222582 76.755044 35.661179 14.279155 73.414676 21.30861 110.525795 30.595566 31.054408 7.781956 60.071559 20.684585 88.097611 35.86307 1.44994 0.789208 4.20299 1.303111 3.2486 3.670734-0.844269 1.963843-3.156831 0.789208-4.937137 0.55061-6.699089-0.917683-13.398178-1.688538-21.730744-2.716343 6.680736 2.404331 11.819763 4.184637 16.903729 6.093418a62.402475 62.402475 0 0 1 34.688435 31.568311c6.956041 13.746898 11.709641 28.283004 16.169582 42.929232a3.395429 3.395429 0 0 1-0.642378 3.817563c-5.928235-5.836467-9.048359-13.893727-16.518303-20.060561 5.671284 10.516652 10.55336 20.005499 12.498849 30.687335a39.680633 39.680633 0 0 1-0.146829 16.371473c-1.835367 7.983846-5.707991 13.526654-14.132326 16.867022-25.805259 10.259701-46.398075 28.356419-66.348513 47.040454-42.341915 39.662279-84.426878 79.544802-126.842207 119.152019a119.298849 119.298849 0 0 1-33.238495 22.942087 35.055508 35.055508 0 0 1-26.153978 1.156281c-16.114521-5.506101-30.393676-14.682935-46.61832-22.244647 11.911531-5.010552 22.850318-9.342018 33.568861-14.187386 24.924283-11.287506 47.884723-25.805259 70.294553-41.516 21.345317-14.921533 31.458189-34.871971 33.330263-60.12662 0.734147-10.076164 1.413233-20.189036 1.541708-30.210139 0-2.826465-1.248049-6.258601 2.40433-7.892078s7.341468-0.20189 10.131226 2.34927c6.735797 6.056711 10.00275 14.077264 11.911531 22.703489 0.679086 3.046709 1.082866 6.148479 1.835367 10.131225 27.255199-26.245747 52.252896-53.02375 65.559306-88.666575 5.506101-14.829765 3.909332-27.86087-5.909882-40.561609-24.245197-31.494896-53.757897-56.088813-90.0431-72.607115-16.701839-7.635126-33.311909-14.169033-52.087713-11.911531-14.517752 1.743599-27.970992 7.029455-40.81856 13.673483-13.159581 6.790858-26.025503 14.150679-39.001547 21.235196 0 0.165183 0 0.458842-0.165183 0.513902a0.715793 0.715793 0 0 1-0.568963 0 2.918233 2.918233 0 0 1 0-1.009452c0.568964-0.293659 0.807561 0.018354 0.605671 0.642379z m182.160165 50.050455c-1.321464 0.275305-1.835367-0.34872-1.835367-1.615122l-0.275305 0.458841-0.293659-0.642378 0.532257 0.165183 1.835367 1.670184-0.385427 0.256951z m-187.739681-47.719539l-0.458842-0.385427 0.862623-0.477196c0 0.183537 0.146829 0.422134 0.091768 0.568964s-0.330366 0.165183-0.495549 0.275305z" fill="#676FE5" p-id="4267"></path><path d="M681.722334 548.921535c5.506101-6.00165 10.314762-11.415982 15.343668-16.518303 44.984843-46.306307 92.832858-89.235539 148.077402-123.226534 6.625675-4.092868 13.618422-7.561712 20.280804-11.599519 3.670734-2.294209 5.763052-1.192988 7.341468 2.459392a56.309057 56.309057 0 0 1 4.661832 15.747448 153.858808 153.858808 0 0 1-2.642929 56.67613 54.088263 54.088263 0 0 1-20.078914 31.091116c-29.365871 22.978794-63.063207 37.735144-97.568104 51.0232-14.682935 5.671284-28.650077 8.497749-44.048806 1.339818-9.342018-4.423234-20.078914-5.30421-31.366421-6.992748zM1085.117627 646.049151c-2.184087-29.732944-5.781406-59.319058-10.167933-88.795051-0.844269-5.671284 0-7.598419 6.075065-8.05726 28.356419-2.092318 56.694484-4.019454 85.124317-4.716893 5.946589-0.146829 11.948239 0.605671 17.839766 0.091768 5.506101-0.477195 6.625675 1.963843 6.864273 6.625675 0.936037 17.931535-0.880976 35.697886-3.2486 53.42753-3.358721 24.997697-8.387627 49.683382-13.269703 74.405775-1.009452 5.083966-3.10177 6.368723-8.05726 6.644028-24.263551 1.376525-48.490394 3.10177-72.717237 5.028905-4.698539 0.367073-6.644028-0.532256-6.478845-5.5061 0.403781-13.10452-1.156281-26.098917-1.963843-39.148377zM1127.20259 706.946625c-3.670734 29.5127-11.709641 57.208387-21.216841 84.426878a692.300397 692.300397 0 0 1-28.20959 67.908576c-1.706891 3.670734-3.010002 5.212442-7.50665 3.487197a626.942982 626.942982 0 0 0-64.237842-20.189036c-3.964393-1.046159-5.395979-2.129026-4.166283-6.882626 10.112872-39.038254 18.482145-78.461935 22.666781-118.656471 0.34872-3.340368 1.413233-3.982746 4.423235-4.368173 31.605018-3.890978 63.356866-6.332016 95.127066-8.40598 3.285307-0.165183 3.285307-0.073415 3.120124 2.679635zM1072.086522 615.325109c1.284757 23.364221 1.303111 46.710088 0.807561 70.074309-0.110122 5.414332-1.835367 7.45159-7.341467 7.928785-29.365871 2.569514-58.731741 6.276955-87.914075 11.012201-3.358721 0.55061-4.845369 0.146829-5.047259-3.835916a405.616087 405.616087 0 0 0-5.85482-51.151676 6.845919 6.845919 0 0 1 1.982196-6.809211c30.210139-29.365871 60.071559-58.951985 92.465785-85.876818 1.321464-1.10122 2.34927-3.413782 4.459941-2.385977s1.284757 3.248599 1.44994 4.992198q2.569514 28.044406 4.992198 56.052105zM1008.931547 725.116758c-1.560062 37.074412-7.635126 73.414676-15.10507 109.516343-0.624025 3.046709-1.468294 4.515003-5.414332 3.505551a759.713424 759.713424 0 0 0-77.268947-15.50885c-4.515003-0.660732-4.973844-2.422684-4.478295-6.185187a447.590928 447.590928 0 0 0 3.322014-82.94023c-0.20189-3.432136 0.660732-4.129576 3.670734-4.69854 24.080014-4.441588 48.288503-7.85537 72.552053-11.012201a160.411068 160.411068 0 0 0 16.334766-2.00055c5.359271-1.284757 7.157931 0 6.258601 5.506101a19.124523 19.124523 0 0 0 0.128476 3.817563z" fill="#FFFFFF" p-id="4268"></path><path d="M445.125186 665.797699c-28.007699 11.195738-55.92363 21.840866-86.427427 23.492697-19.216292 1.046159-38.340815 3.670734-57.446984 6.148479-6.130125 0.807561-7.341468-1.211342-6.497199-6.497199a37.36807 37.36807 0 0 1 5.267503-13.361471 92.355663 92.355663 0 0 1 42.892524-37.313009 35.36752 35.36752 0 0 1 29.934835 0.091768c18.775803 8.497749 36.982643 18.353669 57.043203 23.85977 5.047259 1.284757 10.149579 2.367623 15.233545 3.578965z" fill="#676FE5" p-id="4269"></path><path d="M899.525325 771.404711a399.651144 399.651144 0 0 1-0.477195 44.415879c-0.165183 3.028355-0.422134 4.992198-4.661832 4.441588a698.687474 698.687474 0 0 0-84.885719-6.332016c-1.358172 0-3.028355 0.330366-3.523905-1.266403s1.119574-2.34927 2.018904-3.322014c15.013301-16.334765 30.008249-32.706238 45.150026-48.930882 7.176285-7.690187 14.517752-15.251899 22.024403-22.575013 5.139027-4.992198 12.315312-4.111222 18.702388-5.157381 2.018904-0.34872 2.00055 2.606221 2.330916 4.34982a232.027084 232.027084 0 0 1 3.322014 34.376422zM525.88133 595.282903c-23.602818-0.312012-46.379722-4.55171-67.908575-14.536106-12.55391-5.836467-18.115071-16.20629-16.646778-29.953188 0.495549-4.680186 2.991648-2.826465 5.230796-2.20244a368.688504 368.688504 0 0 1 51.904176 19.638426c11.012201 5.010552 21.840866 10.535006 32.706238 15.912631 3.432136 1.706891 7.616773 3.211892 6.130126 8.369273s-5.763052 1.835367-8.681286 2.771404a9.176835 9.176835 0 0 1-2.734697 0zM894.624896 717.077851c10.186286-10.369823 20.189036-20.592817 30.173432-30.724042q14.224094-14.389277 28.61337-28.631724c1.027805-1.027805 1.835367-3.083416 3.670734-2.367623s1.266403 2.734697 1.413232 4.239697a296.044682 296.044682 0 0 1 0.513903 42.507098c-0.128476 2.55116-0.256951 4.863722-3.670734 5.5061-19.583365 3.395429-39.148376 6.974394-58.731741 10.443238-0.34872 0.018354-0.770854-0.422134-1.982196-0.972744z" fill="#FFFFFF" p-id="4270"></path><path d="M801.278135 263.944115a15.710741 15.710741 0 0 1-2.34927 1.321464 0.972744 0.972744 0 0 1-1.321464-1.284757 3.175185 3.175185 0 0 1 2.073965-1.174635c0.403781-0.073415 0.936037 0.642378 1.596769 1.137928z" fill="#C5C6C5" p-id="4271"></path><path d="M1096.129828 854.198112l-0.238597-0.20189 0.348719 0.073415-0.110122 0.128475z" fill="#EFC510" p-id="4272"></path><path d="M701.70948 635.03695c-2.037257 2.569514-3.817563 3.266953-6.368723 2.496099-18.261901-5.506101-35.881423-12.333666-51.133322-24.098368-6.735797-5.194088-6.368723-8.497749 1.027805-12.627324a119.170373 119.170373 0 0 1 22.244647-8.809761 4.533356 4.533356 0 0 1 5.506101 1.560062c1.835367 2.477745-1.064513 2.991648-2.037257 4.147929-5.230796 6.240247-5.285857 11.746348 0.330366 18.353669 7.341468 8.644578 17.344217 13.196288 27.530503 17.472693 0.734147 0.458842 1.541708 0.880976 2.89988 1.505001zM644.446033 426.465855c0.715793 0.789208 1.835367 1.982196 0.458841 2.55116s-0.495549-0.7525-0.513902-1.284757 0-0.825915 0-1.24805zM941.628642 324.859943l-0.513903-0.165183c0 0.220244 0.20189 0.422134 0.293659 0.642378l0.275305-0.458842zM755.779389 278.737172c0.165183-0.110122 0.422134-0.165183 0.495549-0.293658s0-0.385427-0.091768-0.568964l-0.862623 0.477195zM761.358905 276.42461c0.20189-0.624025 0-0.936037-0.660733-0.752501a2.918233 2.918233 0 0 0 0 1.009452 0.715793 0.715793 0 0 0 0.568964 0c0.128476 0 0.128476-0.34872 0.165183-0.513902z" fill="#002402" p-id="4273"></path><path d="M644.446033 426.484208c1.064513 0 1.688538-0.568964 1.670183-1.670184v-0.146829c0.146829 0.532256 0.55061 1.192988 0.367074 1.596769-0.458842 1.10122-1.303111 0.568964-2.037257 0.201891z" fill="#002402" p-id="4274"></path><path d="M648.68573 424.887439c-0.880976 0.844269-1.835367 2.00055-2.496099-0.20189v0.128475l1.688538-0.679085zM943.51907 326.475065l-0.34872 0.293659 0.385427-0.256951zM941.683703 324.859943c0 1.266403 0.513903 1.835367 1.835367 1.615122l-1.835367-1.670183zM1212.859164 536.147381s1.468294 129.026294-59.594364 245.315141l-59.97979 88.097611s-268.624301-65.173879-308.341641-47.994844l278.535282-278.792233z" fill="#002402" p-id="4275"></path><path d="M828.331443 799.449117s38.891425-108.984087 239.05654-244.434164c0 0 92.263894-38.81801 98.210483 25.328063s-14.077264 67.706685-46.838564 81.416876l-32.761299 13.65513s-11.012201 3.964393-14.132325-9.745798l-12.645678-45.094965 2.716343 57.942533s-1.082866 4.423234-7.341468 7.671834-35.642825 12.352019-35.642825 12.352019a13.820313 13.820313 0 0 1-13.673483-5.79976c-4.992198-7.543358-15.398728-20.06056-15.398729-20.06056l12.241897 27.291906s4.20299 6.845919-7.85537 12.462141-77.874618 32.724592-77.874618 32.724592l84.830659-23.859769a9.176835 9.176835 0 0 1 10.222993 5.395978c3.010002 7.011102 13.471593 30.705688 13.471593 30.705689l-5.65293-37.71679a8.020553 8.020553 0 0 1 5.028906-8.222444c5.85482-2.679636 34.06441-14.058911 34.06441-14.058911s16.261351-1.486647 17.582814 15.343668 5.194088 37.056058 5.194089 37.056058v-49.554907s-1.174635-7.800309 10.516652-12.847568a295.494072 295.494072 0 0 1 46.728442-14.682935c13.471593-2.716343 27.879223 13.526654 16.077814 41.699536-7.084516 16.940437-38.689534 94.815054-55.868569 109.571404s-68.440832 0.34872-76.608215 0-82.591511-19.454889-122.180375-24.777453c-23.254099-3.156831-71.469187 0.238598-71.469187 0.238597z" fill="#FFFFFF" p-id="4276"></path></svg>